<svg width="64" height="64" viewBox="0 0 64 64" fill="none" xmlns="http://www.w3.org/2000/svg">
<path d="M31.9999 5.43994C17.3333 5.43994 5.33325 17.4133 5.33325 32.1599C5.33325 45.4933 15.0932 56.5599 27.8399 58.5599V39.8933H21.0666V32.1599H27.8399V26.2666C27.8399 19.5733 31.8132 15.8933 37.9199 15.8933C40.8266 15.8933 43.8666 16.3999 43.8666 16.3999V22.9866H40.5066C37.1999 22.9866 36.1599 25.0399 36.1599 27.1466V32.1599H43.5732L42.3732 39.8933H36.1599V58.5599C42.4438 57.5675 48.1658 54.3613 52.2931 49.5201C56.4203 44.6789 58.6808 38.5217 58.6666 32.1599C58.6666 17.4133 46.6666 5.43994 31.9999 5.43994Z" fill="black"/>
</svg>
