<svg width="64" height="64" viewBox="0 0 64 64" fill="none" xmlns="http://www.w3.org/2000/svg">
<path d="M32.0026 23.9999C29.8809 23.9999 27.846 24.8428 26.3457 26.3431C24.8454 27.8434 24.0026 29.8782 24.0026 31.9999C24.0026 34.1216 24.8454 36.1565 26.3457 37.6568C27.846 39.1571 29.8809 39.9999 32.0026 39.9999C34.1243 39.9999 36.1591 39.1571 37.6594 37.6568C39.1597 36.1565 40.0026 34.1216 40.0026 31.9999C40.0026 29.8782 39.1597 27.8434 37.6594 26.3431C36.1591 24.8428 34.1243 23.9999 32.0026 23.9999ZM32.0026 18.6666C35.5388 18.6666 38.9302 20.0713 41.4307 22.5718C43.9312 25.0723 45.3359 28.4637 45.3359 31.9999C45.3359 35.5361 43.9312 38.9275 41.4307 41.428C38.9302 43.9285 35.5388 45.3332 32.0026 45.3332C28.4664 45.3332 25.075 43.9285 22.5745 41.428C20.074 38.9275 18.6693 35.5361 18.6693 31.9999C18.6693 28.4637 20.074 25.0723 22.5745 22.5718C25.075 20.0713 28.4664 18.6666 32.0026 18.6666ZM49.3359 17.9999C49.3359 18.884 48.9847 19.7318 48.3596 20.3569C47.7345 20.9821 46.8866 21.3333 46.0026 21.3333C45.1185 21.3333 44.2707 20.9821 43.6456 20.3569C43.0204 19.7318 42.6692 18.884 42.6692 17.9999C42.6692 17.1159 43.0204 16.268 43.6456 15.6429C44.2707 15.0178 45.1185 14.6666 46.0026 14.6666C46.8866 14.6666 47.7345 15.0178 48.3596 15.6429C48.9847 16.268 49.3359 17.1159 49.3359 17.9999ZM32.0026 10.6666C25.4053 10.6666 24.3279 10.6853 21.2586 10.8213C19.1679 10.9199 17.7653 11.1999 16.4639 11.7066C15.3755 12.1076 14.3912 12.7483 13.5839 13.5813C12.75 14.3882 12.1083 15.3726 11.7066 16.4613C11.1999 17.7679 10.9199 19.1679 10.8239 21.2559C10.6853 24.1999 10.6666 25.2293 10.6666 31.9999C10.6666 38.5999 10.6853 39.6746 10.8213 42.7439C10.9199 44.8319 11.1999 46.2373 11.7039 47.5359C12.1573 48.6959 12.6906 49.5306 13.5759 50.4159C14.4746 51.3119 15.3093 51.8479 16.4559 52.2906C17.7733 52.7999 19.1759 53.0826 21.2559 53.1786C24.1999 53.3172 25.2293 53.3332 31.9999 53.3332C38.5999 53.3332 39.6746 53.3146 42.7439 53.1786C44.8292 53.0799 46.2319 52.7999 47.5359 52.2959C48.6244 51.8949 49.6087 51.2542 50.4159 50.4213C51.3146 49.5253 51.8506 48.6906 52.2933 47.5412C52.7999 46.2292 53.0826 44.8266 53.1786 42.7412C53.3172 39.7999 53.3332 38.7679 53.3332 31.9999C53.3332 25.4026 53.3146 24.3253 53.1786 21.2559C53.0799 19.1706 52.7973 17.7626 52.2933 16.4613C51.8923 15.3728 51.2516 14.3885 50.4186 13.5813C49.6116 12.7473 48.6273 12.1057 47.5386 11.7039C46.2319 11.1973 44.8292 10.9173 42.7439 10.8213C39.8026 10.6826 38.7732 10.6666 31.9999 10.6666M31.9999 5.33325C39.2452 5.33325 40.1492 5.35992 42.9946 5.49325C45.8319 5.62659 47.7679 6.07192 49.4666 6.73325C51.2266 7.41059 52.7093 8.32792 54.1919 9.80792C55.5484 11.1405 56.5977 12.7532 57.2666 14.5333C57.9252 16.2319 58.3733 18.1679 58.5066 21.0079C58.6319 23.8506 58.6666 24.7546 58.6666 31.9999C58.6666 39.2452 58.6399 40.1492 58.5066 42.9919C58.3733 45.8346 57.9252 47.7652 57.2666 49.4666C56.5977 51.2467 55.5484 52.8593 54.1919 54.1919C52.8593 55.5484 51.2467 56.5977 49.4666 57.2666C47.7679 57.9252 45.8319 58.3733 42.9946 58.5066C40.1492 58.6319 39.2452 58.6666 31.9999 58.6666C24.7546 58.6666 23.8506 58.6399 21.0053 58.5066C18.1679 58.3733 16.2346 57.9252 14.5333 57.2666C12.7532 56.5977 11.1405 55.5484 9.80792 54.1919C8.4514 52.8593 7.40209 51.2467 6.73325 49.4666C6.07192 47.7679 5.62659 45.8319 5.49325 42.9919C5.36525 40.1492 5.33325 39.2452 5.33325 31.9999C5.33325 24.7546 5.35992 23.8506 5.49325 21.0079C5.62659 18.1653 6.07192 16.2346 6.73325 14.5333C7.40209 12.7532 8.4514 11.1405 9.80792 9.80792C11.1405 8.4514 12.7532 7.40209 14.5333 6.73325C16.2319 6.07192 18.1653 5.62659 21.0053 5.49325C23.8533 5.36792 24.7573 5.33325 32.0026 5.33325" fill="black"/>
</svg>
