<svg width="64" height="64" viewBox="0 0 64 64" fill="none" xmlns="http://www.w3.org/2000/svg">
<path d="M44.2666 15.52C42.4442 13.4387 41.4397 10.7664 41.4399 8H33.1999V41.0667C33.1377 42.8565 32.3826 44.5522 31.0941 45.796C29.8055 47.0398 28.0842 47.7344 26.2933 47.7333C22.5066 47.7333 19.3599 44.64 19.3599 40.8C19.3599 36.2133 23.7866 32.7733 28.3466 34.1867V25.76C19.1466 24.5333 11.0933 31.68 11.0933 40.8C11.0933 49.68 18.4533 56 26.2666 56C34.6399 56 41.4399 49.2 41.4399 40.8V24.0267C44.7813 26.4263 48.7929 27.7137 52.9066 27.7067V19.4667C52.9066 19.4667 47.8933 19.7067 44.2666 15.52Z" fill="black"/>
</svg>
